<?xml version="1.0" encoding="UTF-8"?>
<!DOCTYPE svg PUBLIC "-//W3C//DTD SVG 1.1//EN" "http://www.w3.org/Graphics/SVG/1.1/DTD/svg11.dtd">
<!-- Creator: CorelDRAW -->
<svg xmlns="http://www.w3.org/2000/svg" xml:space="preserve" width="116.064mm" height="87.4888mm" version="1.1" style="shape-rendering:geometricPrecision; text-rendering:geometricPrecision; image-rendering:optimizeQuality; fill-rule:evenodd; clip-rule:evenodd"
viewBox="0 0 11606.38 8748.88"
 xmlns:xlink="http://www.w3.org/1999/xlink"
 xmlns:xodm="http://www.corel.com/coreldraw/odm/2003">
 <defs>
  <style type="text/css">
   <![CDATA[
    .fil0 {fill:white;fill-rule:nonzero}
   ]]>
  </style>
 </defs>
 <g id="Layer_x0020_1">
  <metadata id="CorelCorpID_0Corel-Layer"/>
  <path class="fil0" d="M8816.23 1000.58c-20.29,18.31 -33.52,31.5 -47.88,43.21 -233.82,191.1 -496.99,334.01 -768.13,463.2 -103.79,49.53 -208.39,96.7 -313.69,141.75 -122.42,20.14 -231.85,65.19 -323.08,130.53 -323.43,123.12 -653.94,226.09 -992.08,308.08 -17.5,4.3 -35.31,7.76 -55.92,12.38 -29.88,-80.36 -28.08,-84.14 35.64,-123.44 679.34,-418.96 1413.19,-707.88 2182.31,-912.03 84.81,-22.44 169.97,-43.4 254.92,-64.84 4.98,-1.17 10.58,0.35 27.91,1.16z"/>
  <path class="fil0" d="M7848.75 1719.54c28.4,0 56.94,19.16 85.3,29.39 -22.75,17.46 -42.9,45.05 -68.65,50.66 -176.39,37.92 -258.41,127.53 -261.69,296.69 -0.49,21.62 -0.67,43.39 -0.67,65.01 0.18,90.1 2.96,180.34 1.66,270.3 -0.85,66.82 -4.13,133.32 -12.38,199.14 -5.93,47.06 -14.36,92.26 -24.91,135.65 -15.2,62.54 -35,121.46 -59.23,176.92 -40.96,93.23 -94.58,176.56 -159.74,250.33 -76.23,85.97 -167.99,159.2 -273.93,220.45 4.44,3.77 -236.15,126.22 -383.51,164 -182.66,46.71 -374.58,63.04 -569.77,94.58 0,359.87 -5.61,719.6 2.47,1079.01 3.64,160.55 136.14,1893.53 337.29,1913.36 55.11,5.26 110.88,5.61 168.14,8.22 25.75,72.28 -29.71,62.41 -72.92,62.05 -172.62,-1.16 -345.37,-2.64 -517.99,-3.95 -3.95,-51.5 -8.25,-102.97 -12.7,-154.3 -75.6,-885.62 -47.02,-1768.76 52.96,-2650.95 17.67,-156.25 30.69,-313.2 41.24,-470.11 11.88,29.52 43.56,28.04 128.41,24.09 243.87,-11.39 580.99,-251.63 575.24,-256.93 53.62,-56.26 99.66,-121.46 137.26,-195.05 32.03,-62.54 58.1,-131.02 77.9,-205.28 4.62,-17.5 9.06,-35.31 13.05,-53.44 7.41,-34.51 13.51,-69.33 18.62,-104.46 13.55,-94.05 19.97,-189.44 26.25,-283.99 0.5,-7.44 1.17,-14.71 1.98,-21.94 4.12,-44.91 12.38,-88.3 24.09,-129.89 42.76,-151.49 133,-278.2 257.42,-367.32 91.27,-65.33 200.66,-110.38 323.11,-130.52 46.68,-7.59 95.36,-11.72 145.7,-11.72z"/>
  <path class="fil0" d="M5635.42 6144.23c-9.25,195.37 -24.59,390.24 -36.48,585.47 -17.01,-0.17 -34.15,-0.17 -51.3,-0.32 -163.54,-0.17 -326.91,5.61 -490.43,5.26 -26.07,-0.14 -52.14,-18.13 -78.21,-28.05 3.46,-8.74 6.92,-17.49 10.55,-26.24 87.95,-10.87 178.05,-14.18 263.35,-34.64 170.46,-40.43 250.33,-1770.42 252.31,-1930.02 3.81,-328.04 4.48,-656.23 5.96,-984.46 0,-21.62 -3.95,-43.25 -5.47,-58.91 -193.71,-30.87 -385.3,-47.35 -567.8,-93.38 -146.54,-37.15 -284.16,-96.56 -403.12,-161.57 -101.98,-75.57 -180.05,-133 -256.43,-218.8 -66,-74.26 -120.47,-158.75 -161.08,-254.63 -22.75,-53.62 -41.24,-111.06 -55.1,-171.95 -1.98,-8.39 -3.95,-16.65 -5.61,-25.22 -21.63,-105.3 -28.22,-213.36 -30.52,-322.12 -1.83,-86.96 -0.84,-174.24 -2.47,-261.23 -0.35,-24.42 -0.98,-48.83 -2.01,-73.1 -6.42,-162.7 -88.93,-255.94 -258.05,-288.11 -6.78,-1.31 -15.7,-0.14 -20.15,-3.78 -21.76,-17.81 -42.4,-36.65 -78.38,-68.15 88.79,-11.22 181.85,-9.07 272.62,7.4 109.54,19.83 215.65,60.26 306.74,123.12 118.82,82.17 211.88,202.15 253.3,363.51 3.14,11.88 5.96,24.09 8.43,36.47 6.42,32.35 11.39,65.02 15.66,97.69 13.55,102.97 19.79,207.11 34.82,309.56 4.62,31.54 9.91,62.9 16.83,93.91 5.11,22.61 10.72,45.05 16.68,67.17 19.62,71.75 44.7,140.4 76.87,204.43 35.99,71.79 80.72,137.62 136.49,195.37 11.89,6.95 168.81,159.25 301.63,200.52 122.27,37.96 255.8,45.54 398.53,69.46 1.48,-23.42 3.14,-43.74 4.45,-62.05 25.26,362.2 65.01,723.44 100.01,1084.79 52.28,540.28 53.27,1081.37 27.38,1622.6z"/>
  <path class="fil0" d="M5860.17 1767.23c-29.53,3.81 -59.23,3.81 -88.8,0l88.8 0z"/>
  <path class="fil0" d="M4179.3 3281.08c-99.3,42.15 -198.57,84.35 -297.88,126.5 -428.94,182.07 -871.96,285.26 -1341.44,235.48 -104.49,-11.11 -208.49,-26.77 -312.7,-40.32 -0.04,-5.54 -0.07,-11.04 -0.11,-16.58 507.83,11.96 987.99,-104.35 1453.17,-302.83 -185.32,0 -367.74,5.9 -549.6,-1.65 -180.8,-7.52 -360.82,-29.64 -534.6,-87 12.49,-5.96 24.59,-7.83 36.69,-7.97 462.63,-5.68 918.74,-67.06 1371.67,-157.48 4.59,-0.92 9.14,-1.91 13.73,-2.82 -22.76,-53.63 -41.14,-110.92 -55.04,-171.88 -12.13,2.23 -24.2,4.69 -36.33,6.85 -433.39,77.33 -872.88,120.26 -1309.55,179.31 -246.38,33.31 -494.35,59.2 -731.66,139.7 -153.81,52.14 -296.9,124.04 -416.31,237 -46.61,44.1 -47.17,54.82 -4.13,103.4 104.67,118.04 228.95,211.49 371.79,276.54 881.52,401.43 1724.7,319.05 2527.48,-211.52 36.76,-24.31 72.39,-49.92 107.35,-76.38 -113,-61.81 -211.56,-137.37 -292.53,-228.35z"/>
  <path class="fil0" d="M4656.1 2829.09c183.03,-54.22 361.85,-121.32 533.9,-209.51 70.91,-36.34 138.89,-78.46 208.17,-117.94 -2.26,-4.69 -4.51,-9.38 -6.77,-14.07 -22.93,5.01 -45.9,9.84 -68.76,15.06 -233.68,53.27 -466.48,111.44 -700.05,165.42 4.66,31.47 9.88,62.83 16.83,93.91 5.04,22.65 10.65,45.01 16.68,67.13z"/>
  <path class="fil0" d="M5175.22 2980.08c57.15,-56.1 111.44,-115.12 169.47,-175.3 -13.15,5.36 -23.24,9.31 -33.23,13.55 -181.85,77.22 -363.71,154.44 -545.57,231.7 36.02,71.76 80.82,137.58 136.6,195.48 92.78,-86.36 182.28,-176.6 272.73,-265.43z"/>
  <path class="fil0" d="M7037.15 2664.95c-228.21,-52.39 -455.47,-109.93 -683.72,-162.14 -22.71,-5.18 -46.1,-7.48 -69.18,-11.14 -1.23,4.58 -2.5,9.17 -3.73,13.72 26.7,18.38 52.7,37.89 80.22,54.93 169.3,104.88 354.61,173.77 543.38,232.09 33.73,10.41 67.52,20.46 101.32,30.37 4.66,-17.53 9.1,-35.24 13.09,-53.37 7.51,-34.54 13.54,-69.43 18.62,-104.46z"/>
  <path class="fil0" d="M6700.95 2960.1c-132.61,-55.56 -264.8,-112.04 -397.2,-168.1 -2.68,3.92 -5.36,7.83 -8.04,11.75 12.52,14.39 24.16,29.63 37.68,43.04 70.02,69.64 138.92,140.51 211.2,207.71 60.19,55.96 119.63,112.75 179.78,168.7 53.55,-56.41 99.62,-121.49 137.34,-195.12 -53.52,-22.79 -107.11,-45.51 -160.76,-67.98z"/>
  <path class="fil0" d="M8918.86 3153.99c22.82,0.56 45.61,2.57 68.44,3.91 -340.47,99.28 -686.82,119.56 -1037.45,95.54 448.31,192.19 912.25,305.75 1400.99,307.02 -12.95,7.55 -25.09,11.08 -37.43,13.51 -440.76,86.43 -877.01,65.9 -1296.92,-93.13 -196.99,-74.58 -391.62,-155.37 -585.65,-237.74 -80.71,91.33 -179.1,168.24 -293.37,231.53 51.51,40.85 104.6,79.8 160.2,115.85 695.32,450.78 1437.04,535.45 2220.21,278.31 224.72,-73.77 428.13,-188.21 599.33,-354.65 74.72,-72.64 74.37,-83.61 -4.44,-154.48 -115.65,-103.9 -256.58,-160.9 -400.62,-209.38 -263.49,-88.61 -539.15,-114.68 -812.52,-152.89 -416.91,-58.24 -835.3,-108.87 -1249.68,-181.47 -15.17,62.58 -35.06,121.43 -59.33,176.78 435.78,95.99 878.52,150.07 1328.24,161.29z"/>
  <path class="fil0" d="M4587.7 2358.56c28.16,-3.71 56.34,-7.41 84.49,-10.87 128.56,-15.84 256.72,-34.89 385.06,-52.49 -26.99,-10.44 -53.87,-14.6 -80.82,-18.1 -137.55,-17.81 -275.17,-35.31 -412.79,-52.77 3.07,11.96 5.9,24.09 8.4,36.51 6.46,32.35 11.36,64.98 15.66,97.72z"/>
  <path class="fil0" d="M3473.73 2183.25c-539.89,-75.67 -1044.79,-248.21 -1492.21,-568.36 -82.27,-58.88 -160.66,-123.12 -240.85,-184.89 530.02,301.42 1112.07,403.47 1704.56,464.96 -83.75,-43.92 -169.13,-85.02 -250.97,-132.25 -342.69,-197.91 -648.55,-443.06 -925.02,-725.77 -16.72,-17.08 -41.34,-31.51 -64.56,-36.37 -109.04,-22.97 -218.51,-44.67 -328.57,-62.09 -197.38,-31.22 -393.63,-29.35 -585.9,33.58 -132.36,43.36 -184.18,124.71 -152.12,259.47 17.54,73.62 41.53,151.2 83.9,212.23 85.05,122.52 171.45,249.38 280.49,349 592.52,541.16 1297.13,787.16 2095.64,745.46 115.39,-6.03 230.51,-17.32 345.48,-31.05 -1.84,-86.92 -0.89,-174.27 -2.47,-261.16 -155.9,-20.32 -311.72,-40.92 -467.4,-62.76z"/>
  <path class="fil0" d="M10331.72 936.9c-18.91,-6.7 -38.39,-12.1 -57.96,-16.65 -229.42,-53.55 -457.28,-27.87 -686.51,6.53 -142.24,21.34 -255.38,79.3 -355.71,183.9 -196.92,205.24 -418.96,382.23 -662.16,530.47 -128.62,78.42 -262.22,148.59 -393.59,222.5 589.73,-54.47 1164.9,-161.75 1687.54,-465.92 -76.62,71.55 -155.57,136.63 -238.16,196.71 -360.43,262.15 -767.64,419.42 -1201.28,499.54 -244.93,45.22 -491.45,81.91 -738.25,116.87 0,90.07 2.89,180.38 1.62,270.26 498.09,65.23 987.25,30.2 1463.74,-142.62 406.19,-147.32 774.85,-354.69 1069.06,-677.58 120.19,-131.94 225.46,-275.38 263.46,-455.37 29.1,-137.79 -20.15,-222.07 -151.8,-268.64z"/>
  <path class="fil0" d="M7061.2 2233.14c-149.93,21.69 -300.92,35.98 -451.42,53.65 -0.24,1.77 -0.49,3.53 -0.74,5.3 152.12,22.18 304.2,44.62 456.32,66.92 4.27,-44.98 12.38,-88.37 24.13,-129.9 -9.42,1.34 -18.87,2.65 -28.29,4.03z"/>
  <path class="fil0" d="M6047.46 2897.25c18.8,89.29 28.39,179.21 23.42,268.95 -5.11,96.56 -10.72,193.08 -17.14,289.78 -10.59,156.95 -23.61,313.86 -41.28,470.14 -99.98,882.16 -128.52,1765.3 -52.95,2650.95 4.44,51.3 8.75,102.8 12.7,154.27 16.01,215.02 22.79,430.71 -19.79,644.39 -27.41,137.44 -74.12,271.11 -112.89,406.25 -3.78,13.37 -12.7,25.44 -25.4,49.68 -15.52,-34.82 -27.24,-60.05 -37.78,-85.8 -113.39,-273.44 -133.85,-560.56 -120.3,-851.32 2.47,-55.11 5.61,-110.07 8.89,-164.86 11.89,-195.19 27.23,-390.06 36.48,-585.47 25.93,-541.23 24.9,-1082.32 -27.38,-1622.56 -34.99,-361.39 -74.75,-722.6 -100.01,-1084.79 -1.17,-17.18 -2.47,-34.33 -3.64,-51.51 -6.77,-103.96 -0.67,-209.06 7.1,-314.01 5.11,-68.47 11.07,-136.98 14.71,-205.28 1.48,-28.4 5.43,-61.21 61.2,-38.45 -17.99,-25.4 -26.74,-39.27 -36.79,-51.97 -14.54,-18.16 -27.91,-36.79 -40.25,-55.95 -149.19,-228.21 -159.11,-518.47 -71.79,-753.78 23.6,-63.85 54.29,-123.75 91.4,-177.23 5.79,-8.26 11.4,-15.35 17.18,-21.45 21.1,-22.61 44.38,-30.52 81.85,-17.64 25.22,8.71 50.65,14.36 76.37,17.64 29.57,3.81 59.27,3.81 88.8,0 24.09,-3.14 48.01,-8.4 71.93,-16.65 37.96,-13.23 63.71,-5.96 85.33,16.65 7.41,7.94 14.5,17.67 21.45,29.03 33.66,56.13 61.53,111.41 83.65,166.2 104.81,258.9 80.54,503.94 -74.76,753.92 -16.82,27.23 -34.96,54.29 -54.92,81.7 -5.47,7.27 -10.09,14.85 -22.79,33.97 23.92,-12.7 36.3,-19.29 54.29,-28.68 8.75,31.19 16.51,62.52 23.11,93.88z"/>
  <path class="fil0" d="M5160.75 2052.86c47.27,12.41 95.07,22.75 141.64,33.83 31.86,-77.44 30.37,-83.05 -29.6,-118.15 -58.35,-34.18 -117.05,-67.84 -175.36,-102.09 -706.19,-415.01 -1466.64,-690.56 -2260.57,-879.97 -12.21,-2.93 -25.33,-2.01 -53.23,-3.92 34.15,29.32 54.18,50.84 78.1,66.36 156.21,101.5 307.38,212.62 471.03,300.39 197.8,106.08 399.66,202.04 604.87,289.35 109.54,19.79 215.66,60.32 306.74,123.19 299.27,113.1 605.16,209.16 916.38,291.01z"/>
  <path class="fil0" d="M5804.04 1648.04c223.3,1.06 386.89,-154.69 385.76,-367.24 -1.06,-195.97 -167.25,-354.05 -371.97,-353.84 -213.54,0.18 -375.5,155.12 -376.63,360.22 -1.05,202.43 157.24,359.91 362.84,360.86z"/>
 </g>
</svg>
