<?xml version="1.0" encoding="UTF-8"?>
<svg version="1.1" viewBox="0 0 2048 1631" width="1280" height="1280" xmlns="http://www.w3.org/2000/svg">
<path transform="translate(311,215)" d="m0 0h33l26 3 39 7 17 4 8 4 24 24 8 7 13 12 11 9 10 9 30 23 18 13 20 13 18 11 21 12 29 15v3l-61-8-48-8-41-9-36-10-38-13-31-13-20-10-3-1 13 10 20 15 15 10 18 11 25 14 29 14 27 11 35 12 37 10 39 8 46 7 60 8-2-20-3-12-5-9-6-7-10-6-9-4-13-3-14-12v-1l9-1h24l8 2v-2l-5-1-33-15-33-16-31-16-25-15-24-16-25-17-15-11-1-3 13 1 44 11 53 15 64 21 38 14 35 14 32 14 26 12 25 12 29 15 23 13 28 16 22 13 4 4 1 4-4 11-12-2-38-10-44-13-35-11-40-14-6-2 12 11 9 11 8 13 7 17 1 6 19 2 55 7 9 2 1 2-26 4-53 7 5 51 40-9 41-10 48-11 4 1-2 4-36 20-23 11-33 13-27 9-6 1 8 23 4 9v2l92-39 5-2 3 1-14 14-7 8-24 24-8 7-16 16-5 4 2 4 10 9 14 9 16 8 17 6 24 5 41 6-1-17v-39l4-55 2-4 6-2-11-15-8-14-6-15-5-18-3-24v-11l2-19 5-22 7-18 8-15 8-10 5-3 16 3h26l12-3 9 3 7 10 9 17 8 21 5 23v35l-4 19-6 16-8 17-11 17-4 6 6-2 4 15 3 16 1 9v36l-2 28v11l15 1 23-2 20-4 16-5 16-7 16-10 13-11 4-5-9-9-8-7-7-7-8-7-39-39-1-5 10 3 35 15 43 18 10 4 3-9 6-16 3-9-16-4-38-13-26-11-20-10-16-10-9-7v-2l13 1 35 8 50 12 33 8 1-13 3-36 1-2-78-11-1-2 2-1 69-8 12-1 2-9 9-19 10-14 9-10 8-7-29 10-36 12-32 10-44 12-28 7h-5l-3-8v-6l5-5 21-13 26-15 29-16 48-24 36-16 25-11 44-17 36-13 49-16 52-15 50-13 5-1h7l-1 3-14 11-13 10-17 12-21 13-26 15-29 15-33 16-29 13-4 2 8-1h11l12 4v4l-7 6-21 7-11 7-8 9-4 8-3 14-1 16 17-2 66-10 51-9 31-7 34-10 31-11 27-12 16-8 17-9 23-14 17-12 12-9 16-13 7-6-23 12-29 13-30 11-28 9-44 11-36 7-39 6-44 5h-8l3-3 29-16 23-13 23-14 22-15 19-14 16-13 13-11 15-14 23-23 13-10 15-8 15-5 22-4 35-4h47l25 4 16 5 9 5 8 7 5 10 1 3v16l-4 17-9 21-11 18-11 14-12 14-25 25-11 9-12 10-18 13-22 14-18 10-25 13-30 13-27 10-25 8-36 9-35 6-28 3-39 2-36-1-36-3-11-2 1 5-2 25-3 20-2 7 22 3 51 8 197 27 35 6 30 7 23 7 25 10 16 8 11 7 10 8 10 9 3 5-1 5-7 8-14 14-17 13-17 11-27 14-20 8-31 10-33 8-27 5-35 4-16 1h-30l-36-3-30-5-25-6-27-8-28-11-24-11-23-12-20-12-15-10-18-13-23 10-20 8-29 8-36 7-55 8h-2v178l2 37 5 59 9 81 8 55 8 43 7 27 7 19 6 10 3 2 6 1 24 1 2 1v9l-4 2h-76l-22-1 2 22 1 30-2 31-3 23-6 26-10 34-7 21-1 2h-2l-9-20-8-24-6-27-3-22-2-34v-16l2-45h-94l-9-3-2-2 1-5 12-2 31-4 5-2 5-8 5-15 6-28 6-38 6-55 5-58 4-63 3-64 1-178-24-3-46-7-29-6-27-8-25-10-13-6-5 1-14 10-21 13-21 12-25 13-25 11-28 10-27 8-27 6-27 4-20 2-19 1h-17l-29-2-30-4-29-6-26-7-35-12-26-11-16-8-12-7-11-8-11-9-13-12-8-10-1-7 7-8 10-9 18-12 21-11 21-8 28-8 29-6 40-6 61-8 104-13 55-8 36-6h3l-3-15-2-17-1-16v-11l-12 2-35 3-19 1h-44l-31-2-36-5-37-8-27-8-23-8-28-12-16-8-21-11-26-16-18-13-16-12-13-11-14-12-10-9-7-8-11-13-13-18-14-21-6-14-5-19v-18l5-10 8-8 13-6 18-5 17-3zm43 94m411 84m516 0m28 184-13 23-10 14-4 4v2l36 15 27 11 36 14 33 11 25 6 30 5 39 3h19l39-3 27-4 11-2v-2l-36-2-36-4-34-6-38-9-36-11-33-12-20-8 33 1h24l42-3 29-4 29-6 15-4v-1l-10-1-43-2-48-4-48-6-43-7-40-8zm-574 0-42 8-52 8-41 5-48 4-19 1-34 1-1 2 16 5 24 5 25 3 12 1 101 1 3 1-14 5-35 13-28 9-30 8-34 7-33 5-34 3-39 1 1 3 48 6 25 2h40l32-3 35-6 32-8 36-12 24-9 42-18 16-7 2-2-8-9-9-14-8-15-2-4z" fill="#76DFBB"/>
<path transform="translate(311,215)" d="m0 0h33l26 3 39 7 17 4 8 4 24 24 8 7 13 12 11 9 10 9 30 23 18 13 20 13 18 11 21 12 29 15v3l-61-8-48-8-41-9-36-10-38-13-31-13-20-10-3-1 13 10 20 15 15 10 18 11 25 14 29 14 27 11 35 12 37 10 39 8 46 7 60 8-2-20-3-12-5-9-6-7-10-6-9-4-13-3-14-12v-1l9-1h24l8 2v-2l-5-1-33-15-33-16-31-16-25-15-24-16-25-17-15-11-1-3 13 1 44 11 53 15 64 21 38 14 35 14 32 14 26 12 25 12 29 15 23 13 28 16 22 13 4 4 1 4-4 11-12-2-38-10-44-13-35-11-40-14-6-2 12 11 9 11 8 13 7 17 1 6 19 2 55 7 9 2 1 2-26 4-53 7 5 51 40-9 41-10 48-11 4 1-2 4-36 20-23 11-33 13-27 9-6 1 8 23 4 9-2 4-25 11-38 16-4-2-7-8-9-14-8-15-11-33-4-24-2-25v-11l-12 2-35 3-19 1h-44l-31-2-36-5-37-8-27-8-23-8-28-12-16-8-21-11-26-16-18-13-16-12-13-11-14-12-10-9-7-8-11-13-13-18-14-21-6-14-5-19v-18l5-10 8-8 13-6 18-5 17-3z" fill="#8A8D8E"/>
<path transform="translate(1695,216)" d="m0 0h47l25 4 16 5 9 5 8 7 5 10 1 3v16l-4 17-9 21-11 18-11 14-12 14-25 25-11 9-12 10-18 13-22 14-18 10-25 13-30 13-27 10-25 8-36 9-35 6-28 3-39 2-36-1-36-3-18-2-158-23-1-2 2-1 69-8 12-1 2-9 9-19 10-14 9-10 8-7-29 10-36 12-32 10-44 12-28 7h-5l-3-8v-6l5-5 21-13 26-15 29-16 48-24 36-16 25-11 44-17 36-13 49-16 52-15 50-13 5-1h7l-1 3-14 11-13 10-17 12-21 13-26 15-29 15-33 16-29 13-4 2 8-1h11l12 4v4l-7 6-21 7-11 7-8 9-4 8-3 14-1 16 17-2 66-10 51-9 31-7 34-10 31-11 27-12 16-8 17-9 23-14 17-12 12-9 16-13 7-6-23 12-29 13-30 11-28 9-44 11-36 7-39 6-44 5h-8l3-3 29-16 23-13 23-14 22-15 19-14 16-13 13-11 15-14 23-23 13-10 15-8 15-5 22-4z" fill="#B39BE8"/>
<path transform="translate(725,547)" d="m0 0 4 1 9 28-3 2-42 8-52 8-41 5-48 4-19 1-34 1 7 3 26 6 31 4 12 1 101 1 4 2-10 4-34 13-34 11-30 8-34 7-33 5-34 3h-39l1 2 48 6 25 2h40l32-3 35-6 32-8 36-12 24-9 42-18 16-7 16-6 35-15 16-7 12-5 35-15 47-20 5-2 3 1-14 14-7 8-24 24-8 7-16 16-5 4 2 4 10 9 14 9 16 8 17 6 24 5 42 6 1 4 1 21 2 18 3 34 9 93 4 49 2 29 2 67v53l-2 76-3 54-2 28-1 20-1 8-1 1-55 1h-39l-9-3-2-2 1-5 12-2 31-4 5-2 5-8 5-15 6-28 6-38 6-55 5-58 4-63 3-64 1-178-24-3-46-7-29-6-27-8-25-10-13-6-5 1-14 10-21 13-21 12-25 13-25 11-28 10-27 8-27 6-27 4-20 2-19 1h-17l-29-2-30-4-29-6-26-7-35-12-26-11-16-8-12-7-11-8-11-9-13-12-8-10-1-7 7-8 10-9 18-12 21-11 21-8 28-8 29-6 40-6 61-8 104-13 55-8z" fill="#77DFBB"/>
<path transform="translate(995,370)" d="m0 0 16 3h26l12-3 9 3 7 10 9 17 8 21 5 23v35l-4 19-6 16-8 17-11 17-4 6 6-2 4 15 3 16 1 9v36l-2 28v9l-1 5-2 31-10 96-4 47-4 66-1 20-1 35v118l1 37 3 51 3 38 2 17 1 22 1 30-2 31-3 23-6 26-10 34-7 21-1 2h-2l-9-20-8-24-6-27-3-22-2-34v-16l2-47 1-8 2-37 2-29 2-36 2-76v-53l-2-67-4-56-10-105-3-29-2-25-1-12-1-17-1-4-1-17v-39l4-55 2-4 6-2-11-15-8-14-6-15-5-18-3-24v-11l2-19 5-22 7-18 8-15 8-10z" fill="#B39BE8"/>
<path transform="translate(1189,625)" d="m0 0 5 2 9 9 11 9 15 14-1 3-24 11-20 7-25 7-36 7-55 8h-2v178l2 37 5 59 9 81 8 55 8 43 7 27 7 19 6 10 3 2 6 1 24 1 2 1v9l-4 2h-76l-21-1-1-1-2-16-3-38-3-51-1-37v-118l1-35 4-71 4-50 6-60 6-59 1-20 1-5 1 2 15 1 23-2 20-4 16-5 16-7 16-10 13-11z" fill="#044DB9"/>
<path transform="translate(856,626)" d="m0 0 4 2 10 9 14 9 16 8 17 6 24 5 42 6 1 4 1 21 2 18 3 34 9 93 4 49 2 29 2 67v53l-2 76-3 54-2 28-1 20-1 8-1 1-55 1h-39l-9-3-2-2 1-5 12-2 31-4 5-2 5-8 5-15 6-28 6-38 6-55 5-58 4-63 3-64 1-178-24-3-46-7-29-6-27-8-25-10-14-7 2-4 17-14 10-9z" fill="#054DB9"/>
<path transform="translate(509,257)" d="m0 0 13 1 44 11 53 15 64 21 38 14 35 14 32 14 26 12 25 12 29 15 23 13 28 16 22 13 4 4 1 4-4 11-12-2-38-10-44-13-35-11-40-14-12-6-16-9-17-7-23-6h-4v-2l-5-1-33-15-33-16-31-16-25-15-24-16-25-17-15-11z" fill="#8B8D8F"/>
<path transform="translate(1529,257)" d="m0 0h7l-1 3-14 11-13 10-17 12-21 13-26 15-29 15-33 16-29 13-8 3-22 5-16 6-15 8-13 8-42 15-47 15-47 13-32 8h-5l-3-8v-6l5-5 21-13 26-15 29-16 48-24 36-16 25-11 44-17 36-13 49-16 52-15 50-13z" fill="#B39BE8"/>
<path transform="translate(805,477)" d="m0 0 4 2 5 49 40-9 41-10 48-11 4 1-2 4-36 20-23 11-33 13-27 9-6 1 8 23 4 9-2 4-25 11-38 16-4-2-7-8-9-14-8-15-11-33-4-24-2-25v-9l1-2 72-10z" fill="#044DB9"/>
<path transform="translate(1238,477)" d="m0 0 19 2 66 10 3 2-2 28-3 20-3 12-10 29-9 17-12 17-4 4-8-1-40-17-20-9 1-5 7-17 4-13-16-4-38-13-26-11-20-10-16-10-9-7v-2l13 1 35 8 50 12 33 8 1-13 3-36z" fill="#044DB9"/>
<path transform="translate(1021,230)" d="m0 0 15 1 12 3 13 7 10 8 8 10 6 12 3 11v20l-3 12-7 14-7 9-11 8-12 6-11 3-15 2-18-3-12-5-10-6-11-11-7-12-4-12-1-6v-15l3-14 7-14 8-10 12-9 11-5 11-3z" fill="#B39BE8"/>
<path transform="translate(669,367)" d="m0 0h24l16 2 22 6 18 8 14 8 17 16 8 10 8 13 7 17v6h-12l-42-5-25-4-2-1-2-21-3-12-5-9-6-7-10-6-9-4-13-3-14-12v-1z" fill="#044DB9"/>
<path transform="translate(1357,366)" d="m0 0h11l12 4v4l-7 6-21 7-11 7-8 9-4 8-3 14-1 16-1 2-22 4-50 7h-10l2-9 9-19 10-14 9-10 12-11 19-11 11-5 16-5 9-2z" fill="#044DB9"/>
<path transform="translate(1102,499)" d="m0 0 13 1 35 8 50 12 33 8v8l-4 17-1 3-10-2-40-13-29-12-22-11-16-10-9-7z" fill="#78DFBC"/>
<path transform="translate(943,498)" d="m0 0 4 1-2 4-36 20-23 11-33 13-27 9-6 1-3-6-4-17v-6l19-4 80-19z" fill="#78DFBC"/>
</svg>
